<?xml version="1.0" encoding="UTF-8"?>
<!DOCTYPE svg PUBLIC "-//W3C//DTD SVG 1.1//EN" "http://www.w3.org/Graphics/SVG/1.1/DTD/svg11.dtd">
<!-- Creator: CorelDRAW X6 -->
<svg xmlns="http://www.w3.org/2000/svg" xml:space="preserve" width="297mm" height="210mm" version="1.1" style="shape-rendering:geometricPrecision; text-rendering:geometricPrecision; image-rendering:optimizeQuality; fill-rule:evenodd; clip-rule:evenodd"
viewBox="0 0 29700 21000"
 xmlns:xlink="http://www.w3.org/1999/xlink"
 aria-hidden="true"
 focusable="false"
 data-prefix="far"
 data-icon="hospital"
 role="img">
 <defs>
  <style type="text/css">
   <![CDATA[
    .str0 {stroke:#3270AD;stroke-width:20}
    .fil0 {fill:none}
   ]]>
  </style>
 </defs>
 <g id="Capa_x0020_1">
  <metadata id="CorelCorpID_0Corel-Layer"/>
  <g id="_630202456">
   <path class="fil0 str0" d="M12207 5874l0 -199c0,-13 -11,-24 -24,-24l-24 0c-13,0 -24,11 -24,24l0 199c11,-6 23,-10 35,-10 12,0 25,3 35,10l0 0zm-219 433c-13,-13 -21,-31 -21,-50 0,-19 7,-37 21,-50l13 -13 -18 0c-39,0 -71,-32 -71,-71 0,-39 32,-71 71,-71l18 0 -13 -13c-13,-13 -21,-31 -21,-50 0,-39 32,-71 71,-71 14,0 28,4 39,12l0 -41c0,-54 -46,-97 -103,-97 -65,0 -86,42 -118,93 -67,105 -118,220 -150,341 -4,14 -6,29 -6,43 0,0 0,0 0,0 0,90 92,156 185,131l88 -23c-4,1 -8,1 -12,1 -18,0 -36,-7 -49,-21l77 -51zm318 37c4,-4 7,-10 7,-17 0,-6 -2,-12 -7,-17l-13 -13c-14,-101 7,-151 49,-151l18 0c13,0 24,-11 24,-24 0,-13 -11,-24 -24,-24l-18 0c-42,0 -63,-51 -33,-81l13 -13c4,-4 7,-10 7,-17 0,-13 -11,-24 -24,-24 -6,0 -12,2 -17,7l-13 13c-30,30 -81,9 -81,-33l0 -18c0,-13 -11,-24 -24,-24 -13,0 -24,11 -24,24l0 18c0,42 -51,63 -81,33l-13 -13c-4,-4 -10,-7 -17,-7 -13,0 -24,11 -24,24 0,6 2,12 7,17l13 13c30,30 9,81 -33,81l-18 0c-13,0 -24,11 -24,24 0,13 11,24 24,24l18 0c42,0 63,51 33,81l-13 13c-5,4 -7,11 -7,17 0,13 11,24 24,24 6,0 12,-3 17,-7l13 -13c30,-30 81,-9 81,33l0 18c0,13 11,24 24,24 13,0 24,-11 24,-24l0 -18c0,-42 51,-63 81,-33l13 13c4,4 10,7 17,7 6,0 12,-2 17,-7l-16 71zm-181 -245c-13,0 -24,-11 -24,-24 0,-13 11,-24 24,-24 13,0 24,11 24,24 0,13 -11,24 -24,24l0 0zm118 71c-13,0 -24,-11 -24,-24 0,-13 11,-24 24,-24 13,0 24,11 24,24 6,6 10,15 10,24 0,18 -15,33 -33,33 -9,0 -17,-4 -24,-10l24 -24zm443 9c-32,-121 -83,-236 -150,-341 -80,-4 -100,-46 -165,-46 -57,0 -103,43 -103,97l0 41c12,-8 25,-12 39,-12 39,0 71,32 71,71 0,19 -8,37 -21,50l-13 13 18 0c39,0 71,32 71,71 0,39 -32,71 -71,71l-18 0 13 13c19,25 47,43 77,51l88 23c31,145 123,79 123,-11 0,0 0,0 0,0 0,-15 -2,-29 -6,-43l47 -47z"/>
  </g>
  <g id="_630202720">
   <path class="fil0 str0" d="M20722 5896l-41 0c-96,0 -145,-117 -77,-185l29 -29c9,-10 15,-23 15,-37 0,-30 -24,-54 -54,-54 -14,0 -27,5 -37,15l-29 29c-68,68 -185,20 -185,-77l0 -41c0,-30 -24,-54 -54,-54 -30,0 -54,24 -54,54l0 41c0,96 -117,145 -185,77l-29 -29c-10,-9 -23,-15 -37,-15 -30,0 -54,24 -54,54 0,14 5,27 15,37l29 29c68,68 20,185 -77,185l-41 0c0,0 -1,0 -1,0 -30,0 -54,24 -54,54 0,30 24,54 54,54 0,0 1,0 1,0l41 0c96,0 145,117 77,185l-29 29c-9,10 -14,23 -14,37 0,30 24,54 54,54 14,0 27,-5 37,-14l29 -29c68,-68 185,-20 185,77l0 41c0,30 24,54 54,54 30,0 54,-24 54,-54l0 -41c0,-96 117,-145 185,-77l29 29c10,9 23,14 37,14 30,0 54,-24 54,-54 0,-14 -5,-27 -14,-37l-29 -29c-68,-68 -20,-185 77,-185l41 0c0,0 1,0 1,0 30,0 54,-24 54,-54 0,-30 -24,-54 -54,-54 0,0 -1,0 -1,0l0 0zm-494 85c-50,0 -91,-41 -91,-91 0,-50 41,-91 91,-91 50,0 91,41 91,91 0,50 -41,91 -91,91l0 0zm244 15c-25,0 -46,-20 -46,-46 0,-25 20,-46 46,-46 25,0 46,20 46,46 18,18 28,43 28,68 0,53 -43,97 -97,97 -26,0 -50,-10 -68,-28l91 -91z"/>
  </g>
  <g id="_630202072">
   <path class="fil0 str0" d="M15678 5927c44,0 80,-36 80,-80 0,-44 -36,-80 -80,-80 -44,0 -80,36 -80,80 0,44 36,80 80,80zm-308 -76c9,-3 18,-4 28,-4 0,0 0,0 0,0 11,0 22,2 32,6l26 -81c1,-4 2,-8 2,-12 0,-20 -15,-38 -36,-40 -19,-2 -37,11 -43,29l-35 110 27 -8zm-363 347c1,0 3,-1 4,-1l0 -43c0,-112 72,-212 178,-247l123 -38 57 -180c1,-4 2,-8 2,-12 0,-20 -15,-38 -36,-40 -19,-2 -37,11 -43,29l-56 177c-2,6 -7,9 -13,9 -7,0 -13,-6 -13,-13 0,-1 0,-3 1,-4l72 -230c1,-4 2,-8 2,-12 0,-20 -15,-38 -36,-40 -19,-2 -37,11 -43,29l-80 253c-2,6 -7,9 -13,9 -7,0 -13,-6 -13,-13 0,-1 0,-3 1,-4l64 -203c1,-4 2,-8 2,-12 0,-20 -15,-38 -36,-40 -19,-2 -37,11 -43,29l-100 316 -3 -83c0,0 0,0 0,0 0,-22 -18,-40 -40,-40 -22,0 -41,18 -42,40l0 188c1,72 40,139 103,175l0 0zm709 -84l-265 0c-7,0 -13,-6 -13,-13 0,-7 6,-13 13,-13l213 0c0,0 0,0 0,0 22,0 40,-18 40,-40 0,-3 0,-5 -1,-8 -4,-19 -21,-32 -41,-32l-332 0 79 -28c17,-5 28,-21 28,-38 0,-22 -18,-40 -40,-40 -4,0 -8,1 -12,2l-180 55c-85,28 -142,107 -142,196 0,0 0,0 0,0l0 43c62,12 107,67 107,130 0,17 -3,35 -10,51 31,19 67,29 103,30l347 0c0,0 0,0 0,0 22,0 40,-18 40,-40 0,-3 0,-5 -1,-8 -4,-19 -21,-32 -41,-32l-159 0c-7,0 -13,-6 -13,-13 0,-7 6,-13 13,-13l213 0c0,0 0,0 0,0 22,0 40,-18 40,-40 0,-3 0,-5 -1,-8 -4,-19 -21,-32 -41,-32l-212 0c-7,0 -13,-6 -13,-13 0,-7 6,-13 13,-13l267 0c0,0 0,0 0,0 22,0 40,-18 40,-40 0,-3 0,-5 -1,-8 -4,-19 -21,-32 -41,-32zm-172 -453c29,0 53,-24 53,-53 0,-29 -24,-53 -53,-53 -29,0 -53,24 -53,53 0,29 24,53 53,53zm-507 587c-44,0 -80,36 -80,80 0,44 36,80 80,80 44,0 80,-36 80,-80 0,-44 -36,-80 -80,-80l0 0z"/>
  </g>
  <path class="fil0 str0" d="M18638 5985c-14,0 -25,11 -25,25 0,14 11,25 25,25 14,0 25,-11 25,-25 0,-14 -11,-25 -25,-25zm-74 -74c-14,0 -25,11 -25,25 0,14 11,25 25,25 14,0 25,-11 25,-25 7,-7 10,-16 10,-25 0,-19 -16,-35 -35,-35 -9,0 -18,4 -25,10l25 25zm492 178c-32,-73 -75,-235 -113,-290 -53,-114 -167,-187 -293,-187 -7,0 -14,0 -21,1l-115 0c-164,0 -298,133 -298,298 0,0 0,0 0,0 0,85 36,165 99,221l0 275 397 0 0 -99 99 0c55,0 99,-44 99,-99l0 -99 50 0c27,0 50,-22 50,-50 0,-7 -1,-14 -4,-20l50 50zm-269 -104l-19 0c-44,0 -66,53 -35,85l13 13c5,5 7,11 7,18 0,14 -11,25 -25,25 -7,0 -13,-3 -18,-7l-13 -13c-31,-31 -85,-9 -85,35l0 19c0,14 -11,25 -25,25 -14,0 -25,-11 -25,-25l0 -19c0,-44 -53,-66 -85,-35l-13 13c-5,5 -11,7 -18,7 -14,0 -25,-11 -25,-25 0,-7 3,-13 7,-18l13 -13c31,-31 9,-85 -35,-85l-19 0c-14,0 -25,-11 -25,-25 0,-14 11,-25 25,-25l19 0c44,0 66,-53 35,-85l-13 -13c-5,-5 -7,-11 -7,-18 0,-14 11,-25 25,-25 7,0 13,3 18,7l13 13c31,31 85,9 85,-35l0 -19c0,-14 11,-25 25,-25 14,0 25,11 25,25l0 19c0,44 53,66 85,35l13 -13c5,-5 11,-7 18,-7 14,0 25,11 25,25 0,7 -3,13 -7,18l-13 13c-31,31 -9,85 35,85l19 0c14,0 25,11 25,25 0,14 -11,25 -25,25z"/>
  <g id="_630201376">
   <path class="fil0 str0" d="M14009 5581l-361 0c-43,0 -77,35 -77,77l0 671c0,43 35,77 77,77l361 0c43,0 77,-35 77,-77l0 -671c0,-43 -35,-77 -77,-77zm-181 774c-29,0 -52,-23 -52,-52 0,-29 23,-52 52,-52 29,0 52,23 52,52 0,29 -23,52 -52,52zm181 -174c0,11 -9,19 -19,19l-322 0c-11,0 -19,-9 -19,-19l0 -503c0,-11 9,-19 19,-19l322 0c11,0 19,9 19,19l0 503 0 0z"/>
  </g>
  <path class="fil0 str0" d="M8479 5935c-13,0 -24,11 -24,24 0,13 11,24 24,24 13,0 24,-11 24,-24 0,-13 -11,-24 -24,-24l0 0zm357 -160l-283 -118c-9,-3 -18,-5 -27,-5 -9,0 -19,2 -27,5l-283 118c-26,11 -44,37 -44,65 0,0 0,0 0,0 0,292 169,494 326,560 9,4 18,5 27,5 9,0 19,-2 27,-5 126,-53 326,-234 326,-560 0,0 0,0 0,0 0,-29 -17,-54 -43,-65l0 0zm-121 254l-18 0c-42,0 -63,51 -33,80l13 13c4,4 7,10 7,17 0,13 -11,24 -24,24 -6,0 -12,-2 -17,-7l-13 -13c-30,-30 -80,-9 -80,33l0 18c0,13 -11,24 -24,24 -13,0 -24,-11 -24,-24l0 -18c0,-42 -51,-63 -80,-33l-13 13c-4,4 -10,7 -17,7 -13,0 -24,-11 -24,-24 0,-6 2,-12 7,-17l13 -13c30,-30 9,-80 -33,-80l-18 0c-13,0 -24,-11 -24,-24 0,-13 11,-24 24,-24l18 0c42,0 63,-51 33,-80l-13 -13c-4,-4 -7,-10 -7,-17 0,-13 11,-24 24,-24 6,0 12,2 17,7l13 13c30,30 80,9 80,-33l0 -18c0,-13 11,-24 24,-24 13,0 24,11 24,24l0 18c0,42 51,63 80,33l13 -13c4,-4 10,-7 17,-7 13,0 24,11 24,24 0,6 -2,12 -7,17l-13 13c-30,30 -9,80 33,80l18 0c13,0 24,11 24,24 0,13 -11,24 -24,24zm-141 -47c-13,0 -24,11 -24,24 0,13 11,24 24,24 13,0 24,-11 24,-24 -13,0 -24,11 -24,24l0 -47z"/>
  <g id="_630200440">
   <path class="fil0 str0" d="M10278 6021l-110 0c-15,0 -28,-12 -28,-28l0 -110c0,-15 12,-28 28,-28l110 0c15,0 28,12 28,28l0 64c19,-22 47,-36 77,-36l236 0 11 -13c4,-5 6,-10 6,-16 0,-7 -3,-13 -8,-18l-102 -90 0 -165c0,-15 -12,-28 -28,-28l-55 0c-15,0 -28,12 -28,28l0 68 -152 -135c-9,-8 -28,-15 -40,-15 -13,0 -31,7 -40,15l-365 323c-5,5 -8,11 -8,18 0,6 2,12 6,16l32 37c5,5 12,7 19,7 6,0 11,-2 16,-5l37 -33 0 283c0,30 25,55 55,55l303 0 0 -220zm615 276l-64 0 0 -276c0,-30 -22,-55 -50,-55l-397 0c-27,0 -50,25 -50,55l0 276 -64 0c-10,0 -18,8 -18,18l0 18c0,40 33,73 73,73l515 0c40,0 73,-33 73,-73l0 -18c0,-10 -8,-18 -18,-18l0 0zm-147 0l-331 0 0 -248 331 0 0 248z"/>
  </g>
  <g id="_630200368">
   <path class="fil0 str0" d="M16766 5975l0 -64c0,-11 9,-19 19,-19l65 0c11,0 19,9 19,19l0 64c0,11 -9,19 -19,19l-65 0c-11,0 -19,-9 -19,-19zm226 19l64 0c11,0 19,-9 19,-19l0 -64c0,-11 -9,-19 -19,-19l-64 0c-11,0 -19,9 -19,19l0 64c0,11 9,19 19,19l0 0zm-123 135l0 -64c0,-11 -9,-19 -19,-19l-65 0c-11,0 -19,9 -19,19l0 64c0,11 9,19 19,19l65 0c11,0 19,-9 19,-19zm123 19l64 0c11,0 19,-9 19,-19l0 -64c0,-11 -9,-19 -19,-19l-64 0c-11,0 -19,9 -19,19l0 64c0,11 9,19 19,19l0 0zm290 200l0 58 -722 0 0 -58c0,-11 9,-19 19,-19l31 0 0 -611c0,-19 17,-34 39,-34l143 0 0 -65c0,-21 17,-39 39,-39l181 0c21,0 39,17 39,39l0 65 143 0c21,0 39,15 39,34l0 611 31 0c11,0 19,9 19,19zm-594 -21l181 0 0 -108c0,-11 9,-19 19,-19l65 0c11,0 19,9 19,19l0 108 181 0 0 -566 -104 0 0 39c0,21 -17,39 -39,39l-181 0c-21,0 -39,-17 -39,-39l0 -39 -104 0 0 566zm301 -643l-42 0 0 -42c0,-5 -4,-10 -10,-10l-32 0c-5,0 -10,4 -10,10l0 42 -42 0c-5,0 -10,4 -10,10l0 32c0,5 4,10 10,10l42 0 0 42c0,5 4,10 10,10l32 0c5,0 10,-4 10,-10l0 -42 42 0c5,0 10,-4 10,-10l0 -32c0,-5 -4,-10 -10,-10z"/>
  </g>
  <g id="_630199792">
   <path class="fil0 str0" d="M17856 7193l0 -199c0,-13 -11,-24 -24,-24l-24 0c-13,0 -24,11 -24,24l0 199c11,-6 23,-10 35,-10 12,0 25,3 35,10l0 0zm-219 433c-13,-13 -21,-31 -21,-50 0,-19 7,-37 21,-50l13 -13 -18 0c-39,0 -71,-32 -71,-71 0,-39 32,-71 71,-71l18 0 -13 -13c-13,-13 -21,-31 -21,-50 0,-39 32,-71 71,-71 14,0 28,4 39,12l0 -41c0,-54 -46,-97 -103,-97 -65,0 -86,42 -118,93 -67,105 -118,220 -150,341 -4,14 -6,29 -6,43 0,0 0,0 0,0 0,90 92,156 185,131l88 -23c-4,1 -8,1 -12,1 -18,0 -36,-7 -49,-21l77 -51zm318 37c4,-4 7,-10 7,-17 0,-6 -2,-12 -7,-17l-13 -13c-14,-101 7,-151 49,-151l18 0c13,0 24,-11 24,-24 0,-13 -11,-24 -24,-24l-18 0c-42,0 -63,-51 -33,-81l13 -13c4,-4 7,-10 7,-17 0,-13 -11,-24 -24,-24 -6,0 -12,2 -17,7l-13 13c-30,30 -81,9 -81,-33l0 -18c0,-13 -11,-24 -24,-24 -13,0 -24,11 -24,24l0 18c0,42 -51,63 -81,33l-13 -13c-4,-4 -10,-7 -17,-7 -13,0 -24,11 -24,24 0,6 2,12 7,17l13 13c30,30 9,81 -33,81l-18 0c-13,0 -24,11 -24,24 0,13 11,24 24,24l18 0c42,0 63,51 33,81l-13 13c-5,4 -7,11 -7,17 0,13 11,24 24,24 6,0 12,-3 17,-7l13 -13c30,-30 81,-9 81,33l0 18c0,13 11,24 24,24 13,0 24,-11 24,-24l0 -18c0,-42 51,-63 81,-33l13 13c4,4 10,7 17,7 6,0 12,-2 17,-7l-16 71zm-181 -245c-13,0 -24,-11 -24,-24 0,-13 11,-24 24,-24 13,0 24,11 24,24 0,13 -11,24 -24,24l0 0zm118 71c-13,0 -24,-11 -24,-24 0,-13 11,-24 24,-24 13,0 24,11 24,24 6,6 10,15 10,24 0,18 -15,33 -33,33 -9,0 -17,-4 -24,-10l24 -24zm443 9c-32,-121 -83,-236 -150,-341 -80,-4 -100,-46 -165,-46 -57,0 -103,43 -103,97l0 41c12,-8 25,-12 39,-12 39,0 71,32 71,71 0,19 -8,37 -21,50l-13 13 18 0c39,0 71,32 71,71 0,39 -32,71 -71,71l-18 0 13 13c19,25 47,43 77,51l88 23c31,145 123,79 123,-11 0,0 0,0 0,0 0,-15 -2,-29 -6,-43l47 -47z"/>
  </g>
  <g id="_630198688">
   <path class="fil0 str0" d="M11593 7184l-41 0c-96,0 -145,-117 -77,-185l29 -29c9,-10 15,-23 15,-37 0,-30 -24,-54 -54,-54 -14,0 -27,5 -37,15l-29 29c-68,68 -185,20 -185,-77l0 -41c0,-30 -24,-54 -54,-54 -30,0 -54,24 -54,54l0 41c0,96 -117,145 -185,77l-29 -29c-10,-9 -23,-15 -37,-15 -30,0 -54,24 -54,54 0,14 5,27 15,37l29 29c68,68 20,185 -77,185l-41 0c0,0 -1,0 -1,0 -30,0 -54,24 -54,54 0,30 24,54 54,54 0,0 1,0 1,0l41 0c96,0 145,117 77,185l-29 29c-9,10 -14,23 -14,37 0,30 24,54 54,54 14,0 27,-5 37,-14l29 -29c68,-68 185,-20 185,77l0 41c0,30 24,54 54,54 30,0 54,-24 54,-54l0 -41c0,-96 117,-145 185,-77l29 29c10,9 23,14 37,14 30,0 54,-24 54,-54 0,-14 -5,-27 -14,-37l-29 -29c-68,-68 -20,-185 77,-185l41 0c0,0 1,0 1,0 30,0 54,-24 54,-54 0,-30 -24,-54 -54,-54 0,0 -1,0 -1,0l0 0zm-494 85c-50,0 -91,-41 -91,-91 0,-50 41,-91 91,-91 50,0 91,41 91,91 0,50 -41,91 -91,91l0 0zm244 15c-25,0 -46,-20 -46,-46 0,-25 20,-46 46,-46 25,0 46,20 46,46 18,18 28,43 28,68 0,53 -43,97 -97,97 -26,0 -50,-10 -68,-28l91 -91z"/>
  </g>
  <g id="_630198664">
   <path class="fil0 str0" d="M9857 7245c44,0 80,-36 80,-80 0,-44 -36,-80 -80,-80 -44,0 -80,36 -80,80 0,44 36,80 80,80zm-308 -76c9,-3 18,-4 28,-4 0,0 0,0 0,0 11,0 22,2 32,6l26 -81c1,-4 2,-8 2,-12 0,-20 -15,-38 -36,-40 -19,-2 -37,11 -43,29l-35 110 27 -8zm-363 347c1,0 3,-1 4,-1l0 -43c0,-112 72,-212 178,-247l123 -38 57 -180c1,-4 2,-8 2,-12 0,-20 -15,-38 -36,-40 -19,-2 -37,11 -43,29l-56 177c-2,6 -7,9 -13,9 -7,0 -13,-6 -13,-13 0,-1 0,-3 1,-4l72 -230c1,-4 2,-8 2,-12 0,-20 -15,-38 -36,-40 -19,-2 -37,11 -43,29l-80 253c-2,6 -7,9 -13,9 -7,0 -13,-6 -13,-13 0,-1 0,-3 1,-4l64 -203c1,-4 2,-8 2,-12 0,-20 -15,-38 -36,-40 -19,-2 -37,11 -43,29l-100 316 -3 -83c0,0 0,0 0,0 0,-22 -18,-40 -40,-40 -22,0 -41,18 -42,40l0 188c1,72 40,139 103,175l0 0zm709 -84l-265 0c-7,0 -13,-6 -13,-13 0,-7 6,-13 13,-13l213 0c0,0 0,0 0,0 22,0 40,-18 40,-40 0,-3 0,-5 -1,-8 -4,-19 -21,-32 -41,-32l-332 0 79 -28c17,-5 28,-21 28,-38 0,-22 -18,-40 -40,-40 -4,0 -8,1 -12,2l-180 55c-85,28 -142,107 -142,196 0,0 0,0 0,0l0 43c62,12 107,67 107,130 0,17 -3,35 -10,51 31,19 67,29 103,30l347 0c0,0 0,0 0,0 22,0 40,-18 40,-40 0,-3 0,-5 -1,-8 -4,-19 -21,-32 -41,-32l-159 0c-7,0 -13,-6 -13,-13 0,-7 6,-13 13,-13l213 0c0,0 0,0 0,0 22,0 40,-18 40,-40 0,-3 0,-5 -1,-8 -4,-19 -21,-32 -41,-32l-212 0c-7,0 -13,-6 -13,-13 0,-7 6,-13 13,-13l267 0c0,0 0,0 0,0 22,0 40,-18 40,-40 0,-3 0,-5 -1,-8 -4,-19 -21,-32 -41,-32zm-172 -453c29,0 53,-24 53,-53 0,-29 -24,-53 -53,-53 -29,0 -53,24 -53,53 0,29 24,53 53,53zm-507 587c-44,0 -80,36 -80,80 0,44 36,80 80,80 44,0 80,-36 80,-80 0,-44 -36,-80 -80,-80l0 0z"/>
  </g>
  <path class="fil0 str0" d="M14778 7304c-14,0 -25,11 -25,25 0,14 11,25 25,25 14,0 25,-11 25,-25 0,-14 -11,-25 -25,-25zm-74 -74c-14,0 -25,11 -25,25 0,14 11,25 25,25 14,0 25,-11 25,-25 7,-7 10,-16 10,-25 0,-19 -16,-35 -35,-35 -9,0 -18,4 -25,10l25 25zm492 178c-32,-73 -75,-235 -113,-290 -53,-114 -167,-187 -293,-187 -7,0 -14,0 -21,1l-115 0c-164,0 -298,133 -298,298 0,0 0,0 0,0 0,85 36,165 99,221l0 275 397 0 0 -99 99 0c55,0 99,-44 99,-99l0 -99 50 0c27,0 50,-22 50,-50 0,-7 -1,-14 -4,-20l50 50zm-269 -104l-19 0c-44,0 -66,53 -35,85l13 13c5,5 7,11 7,18 0,14 -11,25 -25,25 -7,0 -13,-3 -18,-7l-13 -13c-31,-31 -85,-9 -85,35l0 19c0,14 -11,25 -25,25 -14,0 -25,-11 -25,-25l0 -19c0,-44 -53,-66 -85,-35l-13 13c-5,5 -11,7 -18,7 -14,0 -25,-11 -25,-25 0,-7 3,-13 7,-18l13 -13c31,-31 9,-85 -35,-85l-19 0c-14,0 -25,-11 -25,-25 0,-14 11,-25 25,-25l19 0c44,0 66,-53 35,-85l-13 -13c-5,-5 -7,-11 -7,-18 0,-14 11,-25 25,-25 7,0 13,3 18,7l13 13c31,31 85,9 85,-35l0 -19c0,-14 11,-25 25,-25 14,0 25,11 25,25l0 19c0,44 53,66 85,35l13 -13c5,-5 11,-7 18,-7 14,0 25,11 25,25 0,7 -3,13 -7,18l-13 13c-31,31 -9,85 35,85l19 0c14,0 25,11 25,25 0,14 -11,25 -25,25z"/>
  <g id="_630198016">
   <path class="fil0 str0" d="M19640 6900l-361 0c-43,0 -77,35 -77,77l0 671c0,43 35,77 77,77l361 0c43,0 77,-35 77,-77l0 -671c0,-43 -35,-77 -77,-77zm-181 774c-29,0 -52,-23 -52,-52 0,-29 23,-52 52,-52 29,0 52,23 52,52 0,29 -23,52 -52,52zm181 -174c0,11 -9,19 -19,19l-322 0c-11,0 -19,-9 -19,-19l0 -503c0,-11 9,-19 19,-19l322 0c11,0 19,9 19,19l0 503 0 0z"/>
  </g>
  <path class="fil0 str0" d="M16239 7254c-13,0 -24,11 -24,24 0,13 11,24 24,24 13,0 24,-11 24,-24 0,-13 -11,-24 -24,-24l0 0zm357 -160l-283 -118c-9,-3 -18,-5 -27,-5 -9,0 -19,2 -27,5l-283 118c-26,11 -44,37 -44,65 0,0 0,0 0,0 0,292 169,494 326,560 9,4 18,5 27,5 9,0 19,-2 27,-5 126,-53 326,-234 326,-560 0,0 0,0 0,0 0,-29 -17,-54 -43,-65l0 0zm-121 254l-18 0c-42,0 -63,51 -33,80l13 13c4,4 7,10 7,17 0,13 -11,24 -24,24 -6,0 -12,-2 -17,-7l-13 -13c-30,-30 -80,-9 -80,33l0 18c0,13 -11,24 -24,24 -13,0 -24,-11 -24,-24l0 -18c0,-42 -51,-63 -80,-33l-13 13c-4,4 -10,7 -17,7 -13,0 -24,-11 -24,-24 0,-6 2,-12 7,-17l13 -13c30,-30 9,-80 -33,-80l-18 0c-13,0 -24,-11 -24,-24 0,-13 11,-24 24,-24l18 0c42,0 63,-51 33,-80l-13 -13c-4,-4 -7,-10 -7,-17 0,-13 11,-24 24,-24 6,0 12,2 17,7l13 13c30,30 80,9 80,-33l0 -18c0,-13 11,-24 24,-24 13,0 24,11 24,24l0 18c0,42 51,63 80,33l13 -13c4,-4 10,-7 17,-7 13,0 24,11 24,24 0,6 -2,12 -7,17l-13 13c-30,30 -9,80 33,80l18 0c13,0 24,11 24,24 0,13 -11,24 -24,24zm-141 -47c-13,0 -24,11 -24,24 0,13 11,24 24,24 13,0 24,-11 24,-24 -13,0 -24,11 -24,24l0 -47z"/>
  <g id="_630197512">
   <path class="fil0 str0" d="M21129 7340l-110 0c-15,0 -28,-12 -28,-28l0 -110c0,-15 12,-28 28,-28l110 0c15,0 28,12 28,28l0 64c19,-22 47,-36 77,-36l236 0 11 -13c4,-5 6,-10 6,-16 0,-7 -3,-13 -8,-18l-102 -90 0 -165c0,-15 -12,-28 -28,-28l-55 0c-15,0 -28,12 -28,28l0 68 -152 -135c-9,-8 -28,-15 -40,-15 -13,0 -31,7 -40,15l-365 323c-5,5 -8,11 -8,18 0,6 2,12 6,16l32 37c5,5 12,7 19,7 6,0 11,-2 16,-5l37 -33 0 283c0,30 25,55 55,55l303 0 0 -220zm615 276l-64 0 0 -276c0,-30 -22,-55 -50,-55l-397 0c-27,0 -50,25 -50,55l0 276 -64 0c-10,0 -18,8 -18,18l0 18c0,40 33,73 73,73l515 0c40,0 73,-33 73,-73l0 -18c0,-10 -8,-18 -18,-18l0 0zm-147 0l-331 0 0 -248 331 0 0 248z"/>
  </g>
  <g id="_630196432">
   <path class="fil0 str0" d="M12978 7293l0 -64c0,-11 9,-19 19,-19l65 0c11,0 19,9 19,19l0 64c0,11 -9,19 -19,19l-65 0c-11,0 -19,-9 -19,-19zm226 19l64 0c11,0 19,-9 19,-19l0 -64c0,-11 -9,-19 -19,-19l-64 0c-11,0 -19,9 -19,19l0 64c0,11 9,19 19,19l0 0zm-123 135l0 -64c0,-11 -9,-19 -19,-19l-65 0c-11,0 -19,9 -19,19l0 64c0,11 9,19 19,19l65 0c11,0 19,-9 19,-19zm123 19l64 0c11,0 19,-9 19,-19l0 -64c0,-11 -9,-19 -19,-19l-64 0c-11,0 -19,9 -19,19l0 64c0,11 9,19 19,19l0 0zm290 200l0 58 -722 0 0 -58c0,-11 9,-19 19,-19l31 0 0 -611c0,-19 17,-34 39,-34l143 0 0 -65c0,-21 17,-39 39,-39l181 0c21,0 39,17 39,39l0 65 143 0c21,0 39,15 39,34l0 611 31 0c11,0 19,9 19,19zm-594 -21l181 0 0 -108c0,-11 9,-19 19,-19l65 0c11,0 19,9 19,19l0 108 181 0 0 -566 -104 0 0 39c0,21 -17,39 -39,39l-181 0c-21,0 -39,-17 -39,-39l0 -39 -104 0 0 566zm301 -643l-42 0 0 -42c0,-5 -4,-10 -10,-10l-32 0c-5,0 -10,4 -10,10l0 42 -42 0c-5,0 -10,4 -10,10l0 32c0,5 4,10 10,10l42 0 0 42c0,5 4,10 10,10l32 0c5,0 10,-4 10,-10l0 -42 42 0c5,0 10,-4 10,-10l0 -32c0,-5 -4,-10 -10,-10z"/>
  </g>
 </g>
</svg>
